<?xml version="1.0" encoding="UTF-8"?>
<!-- Generated by Pixelmator Pro 2.4.7 -->
<svg width="500" height="500" viewBox="0 0 500 500" xmlns="http://www.w3.org/2000/svg" xmlns:xlink="http://www.w3.org/1999/xlink">
    <g id="-">
        <path id="path1" fill="none" stroke="#ffffff" stroke-width="32.598137" stroke-linecap="round" stroke-linejoin="round" visibility="hidden" d="M 250.016708 101.270996 L 250.016708 398.728973 M 121.187614 175.635468 L 378.793701 324.364502 M 378.778809 175.635468 L 121.172707 324.364502"/>
        <path id="path2" fill="none" stroke="#ffffff" stroke-width="32.700001" stroke-linecap="round" stroke-linejoin="round" visibility="hidden" d="M 140.999985 61.164459 C 173.064957 42.615936 210.293488 32 250 32 C 370.397034 32 468 129.601898 468 250 C 468 370.397064 370.397034 468.000031 250 468.000031 C 129.601852 468.000031 31.999977 370.397064 31.999977 250 C 31.999977 210.293488 42.615929 173.064941 61.164455 140.999969"/>
    </g>
    <g id="--2">
        <path id="path3" fill="none" stroke="#ffffff" stroke-width="46.321655" stroke-linecap="round" stroke-linejoin="round" d="M 249.538315 39.437775 L 249.538315 462.122864 M 66.473351 145.109009 L 432.529266 356.45166 M 432.508087 145.109009 L 66.452164 356.45166"/>
        <text id="0" xml:space="preserve" x="295.004899" y="143" font-family="Microsoft Sans Serif" font-size="126.957381" fill="#ffffff" letter-spacing="-7.617443">0</text>
        <text id="1" xml:space="preserve" x="381.004899" y="290" font-family="Microsoft Sans Serif" font-size="126.957381" fill="#ffffff" letter-spacing="-7.617443">1</text>
        <text id="2" xml:space="preserve" x="295.004899" y="432" font-family="Microsoft Sans Serif" font-size="126.957381" fill="#ffffff" letter-spacing="-7.617443">2</text>
        <text id="4" xml:space="preserve" x="43.004899" y="290" font-family="Microsoft Sans Serif" font-size="126.957381" fill="#ffffff" letter-spacing="-7.617443">4</text>
        <text id="3" xml:space="preserve" x="135.004899" y="432" font-family="Microsoft Sans Serif" font-size="126.957381" fill="#ffffff" letter-spacing="-7.617443">3</text>
        <text id="5" xml:space="preserve" x="138.004899" y="143" font-family="Microsoft Sans Serif" font-size="126.957381" fill="#ffffff" letter-spacing="-7.617443">5</text>
    </g>
</svg>
