<?xml version="1.0" encoding="UTF-8"?>
<!-- Generated by Pixelmator Pro 2.4.7 -->
<svg width="500" height="500" viewBox="0 0 500 500" xmlns="http://www.w3.org/2000/svg" xmlns:xlink="http://www.w3.org/1999/xlink">
    <g id="auth-fingerprint-svgrepo-com">
        <g id="SVGRepobgCarrier"/>
        <g id="SVGRepotracerCarrier"/>
        <g id="SVGRepoiconCarrier">
            <path id="path1" fill="#ffffff" stroke="none" d="M 252.189331 15.009857 C 216.699158 14.664154 181.208969 23.421478 149.175568 41.281799 C 135.002548 49.232544 129.932556 67.208069 137.88327 81.381104 C 145.833984 95.669373 163.80954 100.73941 177.98259 92.788666 C 223.728043 67.208069 279.383118 67.78421 324.667664 94.286652 C 369.837006 120.789063 397.491699 169.06955 397.491699 221.49823 L 397.491699 250.996582 C 397.491699 267.243713 410.74292 280.494934 426.990051 280.494934 C 443.237183 280.494934 456.488403 267.243713 456.488403 250.996582 L 456.488403 221.49823 C 456.488403 220.922119 456.488403 220.345978 456.373169 219.88504 C 455.796997 147.291473 417.080414 80.113617 354.396454 43.355896 C 322.824036 24.80423 287.564331 15.35553 252.074066 15.009857 Z M 98.820999 98.550079 C 96.862137 98.550079 94.903267 98.780518 93.059624 99.241425 C 85.454559 100.969849 78.771332 105.694214 74.623154 112.377411 C 54.343044 145.102142 43.511608 182.896881 43.511608 221.49823 L 43.511608 370.833588 C 43.511608 387.080719 56.762825 400.33194 73.009949 400.33194 C 89.257072 400.33194 102.508293 387.080719 102.508293 370.833588 L 102.508293 221.49823 C 102.508293 193.95874 110.228569 166.880219 124.747269 143.488953 C 133.389374 129.661591 129.125946 111.570831 115.298599 102.928741 C 110.343788 99.817566 104.582375 98.319611 98.820999 98.550079 Z M 250 103.504883 C 185.126678 103.504883 132.006638 156.624939 132.006638 221.49823 L 132.006638 250.996582 C 132.006638 267.243713 145.257858 280.494934 161.504974 280.494934 C 177.75209 280.494934 191.003311 267.243713 191.003311 250.996582 L 191.003311 221.49823 C 191.003311 188.54303 217.0448 162.501556 250 162.501556 C 282.9552 162.501556 308.996674 188.54303 308.996674 221.49823 L 308.996674 368.989929 C 308.996674 368.989929 309.227112 382.010681 314.181946 396.759857 C 319.136749 411.509033 328.931122 430.636871 347.137115 448.842865 C 358.659912 460.365662 377.326813 460.365662 388.849609 448.842865 C 400.372406 437.320099 400.372406 418.653168 388.849609 407.130371 C 377.557281 395.838043 372.602478 385.467529 370.182709 378.092957 C 367.762939 370.718384 367.993378 368.989929 367.993378 368.989929 L 367.993378 221.49823 C 367.993378 156.624939 314.873291 103.504883 250 103.504883 Z M 250 191.999908 C 233.752884 191.999908 220.501663 205.251129 220.501663 221.49823 L 220.501663 368.989929 C 220.501663 368.989929 220.501663 386.504578 224.765076 407.936951 C 229.028503 429.369354 236.979263 456.678375 258.64209 478.341217 C 270.164886 489.864014 288.831787 489.864014 300.354584 478.341217 C 311.87738 466.81842 311.87738 448.15152 300.354584 436.628723 C 292.519104 428.793213 285.720673 411.854736 282.609497 396.414215 C 279.498352 380.973633 279.498352 368.989929 279.498352 368.989929 L 279.498352 221.49823 C 279.498352 205.251129 266.247131 191.999908 250 191.999908 Z M 161.504974 309.993256 C 145.257858 309.993256 132.006638 323.244476 132.006638 339.491608 L 132.006638 427.986633 C 132.006638 444.233765 145.257858 457.484985 161.504974 457.484985 C 177.75209 457.484985 191.003311 444.233765 191.003311 427.986633 L 191.003311 339.491608 C 191.003311 323.244476 177.75209 309.993256 161.504974 309.993256 Z M 426.990051 309.993256 C 410.74292 309.993256 397.491699 323.244476 397.491699 339.491608 C 397.491699 355.738739 410.74292 368.989929 426.990051 368.989929 C 443.237183 368.989929 456.488403 355.738739 456.488403 339.491608 C 456.488403 323.244476 443.237183 309.993256 426.990051 309.993256 Z"/>
        </g>
    </g>
</svg>
